<?xml version="1.0" encoding="UTF-8"?>
<svg id="Layer_1" data-name="Layer 1" xmlns="http://www.w3.org/2000/svg" viewBox="0 0 453.5 87.52">
  <defs>
    <style>
      .cls-1 { fill: #00F0FF; }
      .cls-2 { fill: #FFFFFF; }
      .cls-3 { fill: #FF00E5; }
      .cls-4 { fill: #FFD700; }
    </style>
  </defs>
  <g>
    <g>
      <polygon class="cls-2" points="24.54 62.48 39.49 87.52 57.93 87.52 43 62.48 24.54 62.48"/>
      <path class="cls-2" d="m39.19,55.07c2.91-1.37,5.55-3.15,8.05-5.65,5.42-5.11,8.52-12.39,8.52-20.29s-3.26-14.72-8.52-20.29C41.97,3.41,34.85.47,26.95.47h-7.44v-.16H3.71v54.76h35.48ZM19.51,16.27h7.44c3.56,0,6.66,1.24,9.14,3.72,2.48,2.63,3.72,5.73,3.72,9.14s-1.24,6.66-3.72,9.14c-2.48,2.48-5.58,3.72-9.14,3.72h-7.44v-25.72Z"/>
    </g>
    <path class="cls-3" d="m0,75c0-6.92,5.61-12.52,12.53-12.52s12.52,5.61,12.52,12.52-5.61,12.52-12.52,12.52S0,81.92,0,75Z"/>
  </g>
  <g>
    <path class="cls-1" d="m103.21,75c0-6.92,5.61-12.52,12.52-12.52s12.52,5.61,12.52,12.52-5.61,12.52-12.52,12.52-12.52-5.61-12.52-12.52Z"/>
    <polygon class="cls-2" points="122.17 14.87 114.89 0 107.76 15.03 73.53 87.52 90.88 87.52 100.17 67.7 100.21 67.7 111.36 44.15 111.36 44.15 115.2 35.94 120.38 46.59 130.83 67.7 130.84 67.7 133.54 73.17 133.64 73.38 133.64 73.38 140.6 87.52 157.95 87.52 122.17 14.87"/>
  </g>
  <g>
    <polygon class="cls-2" points="189.35 59.67 189.35 39.04 222.04 72.65 235.83 87.06 235.83 67.7 235.83 .46 220.03 .46 220.03 48.33 187.34 14.72 173.55 .31 173.55 19.67 173.55 59.67 189.35 59.67"/>
    <rect class="cls-4" x="173.55" y="65.52" width="22.01" height="22.01"/>
  </g>
  <g>
    <path class="cls-2" d="m315.12,13.17c-7.42-7.42-17.58-12.11-28.67-12.65v15.86c6.74.53,12.88,3.48,17.36,8.1,4.96,4.96,8.21,11.93,8.21,19.52s-3.25,14.56-8.21,19.52c-4.96,4.96-11.93,8.21-19.52,8.21h-10.07V28.35h-15.8v59.17h25.87c11.93,0,22.93-4.8,30.83-12.7,7.9-7.9,12.7-18.9,12.7-30.83s-4.8-22.93-12.7-30.83Z"/>
    <rect class="cls-3" x="258.6" y=".5" width="22.01" height="22.01"/>
  </g>
  <g>
    <path class="cls-2" d="m440.78,56.31l-13.58-38.34-6.35-17.97-8.21,17.04-18.59,38.26-18.43-38.26-8.21-17.04-6.35,17.97-24.63,69.55h16.73l16.42-46.47,24.48,46.47,24.48-46.47,7.97,22.34c3.32-4.26,8.47-7.02,14.28-7.08Z"/>
    <path class="cls-3" d="m428.45,75c0-6.92,5.61-12.52,12.52-12.52s12.52,5.61,12.52,12.52-5.61,12.52-12.52,12.52-12.52-5.61-12.52-12.52Z"/>
  </g>
</svg>